<svg width="41" height="42" viewBox="0 0 41 42" fill="none" xmlns="http://www.w3.org/2000/svg">
<path fill-rule="evenodd" clip-rule="evenodd" d="M20.375 32.1875C26.4846 32.1875 31.4375 27.2346 31.4375 21.125C31.4375 15.0154 26.4846 10.0625 20.375 10.0625C14.2654 10.0625 9.3125 15.0154 9.3125 21.125C9.3125 27.2346 14.2654 32.1875 20.375 32.1875ZM20.375 28.5C24.4481 28.5 27.75 25.1981 27.75 21.125C27.75 17.0519 24.4481 13.75 20.375 13.75C16.3019 13.75 13 17.0519 13 21.125C13 25.1981 16.3019 28.5 20.375 28.5Z" fill="#CF6736"/>
<path d="M31.4375 8.21875C30.4192 8.21875 29.5938 9.04422 29.5938 10.0625C29.5938 11.0808 30.4192 11.9062 31.4375 11.9062C32.4558 11.9062 33.2812 11.0808 33.2812 10.0625C33.2812 9.04422 32.4558 8.21875 31.4375 8.21875Z" fill="#CF6736"/>
<path fill-rule="evenodd" clip-rule="evenodd" d="M1.29949 6.88398C0.09375 9.25038 0.09375 12.3482 0.09375 18.5438V23.7062C0.09375 29.9018 0.09375 32.9996 1.29949 35.366C2.36009 37.4476 4.05244 39.1399 6.13398 40.2005C8.50038 41.4062 11.5982 41.4062 17.7938 41.4062H22.9562C29.1518 41.4062 32.2496 41.4062 34.616 40.2005C36.6976 39.1399 38.3899 37.4476 39.4505 35.366C40.6562 32.9996 40.6562 29.9018 40.6562 23.7062V18.5438C40.6562 12.3482 40.6562 9.25038 39.4505 6.88398C38.3899 4.80244 36.6976 3.11009 34.616 2.04949C32.2496 0.84375 29.1518 0.84375 22.9562 0.84375H17.7938C11.5982 0.84375 8.50038 0.84375 6.13398 2.04949C4.05244 3.11009 2.36009 4.80244 1.29949 6.88398ZM22.9562 4.53125H17.7938C14.6351 4.53125 12.4879 4.53412 10.8282 4.66972C9.21154 4.80181 8.38479 5.04122 7.80807 5.33508C6.42037 6.04214 5.29214 7.17037 4.58508 8.55807C4.29122 9.13479 4.05181 9.96154 3.91972 11.5782C3.78412 13.2379 3.78125 15.3851 3.78125 18.5438V23.7062C3.78125 26.8649 3.78412 29.0121 3.91972 30.6718C4.05181 32.2885 4.29122 33.1152 4.58508 33.6919C5.29214 35.0796 6.42037 36.2079 7.80807 36.9149C8.38479 37.2088 9.21154 37.4482 10.8282 37.5803C12.4879 37.7159 14.6351 37.7188 17.7938 37.7188H22.9562C26.1149 37.7188 28.2621 37.7159 29.9218 37.5803C31.5385 37.4482 32.3652 37.2088 32.9419 36.9149C34.3296 36.2079 35.4579 35.0796 36.1649 33.6919C36.4588 33.1152 36.6982 32.2885 36.8303 30.6718C36.9659 29.0121 36.9688 26.8649 36.9688 23.7062V18.5438C36.9688 15.3851 36.9659 13.2379 36.8303 11.5782C36.6982 9.96154 36.4588 9.13479 36.1649 8.55807C35.4579 7.17037 34.3296 6.04214 32.9419 5.33508C32.3652 5.04122 31.5385 4.80181 29.9218 4.66972C28.2621 4.53412 26.1149 4.53125 22.9562 4.53125Z" fill="#CF6736"/>
</svg>
