<svg width="20" height="20" viewBox="0 0 20 20" fill="none" xmlns="http://www.w3.org/2000/svg">
<path fill-rule="evenodd" clip-rule="evenodd" d="M14.1993 13.0203C15.2261 11.7367 15.8402 10.1084 15.8402 8.33676C15.8402 4.19274 12.4808 0.833344 8.33673 0.833344C4.19271 0.833344 0.833313 4.19274 0.833313 8.33676C0.833313 12.4808 4.19271 15.8402 8.33673 15.8402C10.1084 15.8402 11.7366 15.2262 13.0203 14.1994L17.7434 18.9225C18.069 19.2481 18.5969 19.2481 18.9225 18.9225C19.248 18.5969 19.248 18.069 18.9225 17.7434L14.1993 13.0203ZM8.33673 14.1811C5.10898 14.1811 2.49237 11.5645 2.49237 8.33676C2.49237 5.10901 5.10898 2.4924 8.33673 2.4924C11.5645 2.4924 14.1811 5.10901 14.1811 8.33676C14.1811 11.5645 11.5645 14.1811 8.33673 14.1811Z" fill="#99492E"/>
</svg>
