<svg width="123" height="89" viewBox="0 0 123 89" fill="none" xmlns="http://www.w3.org/2000/svg">
<path d="M11.351 0.0456738C18.8413 0.0456738 22.5865 4.61298 22.5865 13.7476C22.5865 20.8878 20.1202 25.5465 15.1875 27.7236C14.4415 27.9976 12.6146 28.1803 9.70673 28.2716C9.15865 28.7284 8.88462 29.2764 8.88462 29.9159L9.02164 36.3558C9.02164 37.3606 8.42789 37.863 7.24039 37.863H6.96635L5.04808 37.726L2.03365 38C1.30289 37.8173 0.937501 37.2692 0.937501 36.3558V34.5745L1.07452 12.3774L0.800482 2.78606C0.800482 1.14183 2.07933 0.319712 4.63702 0.319712L11.351 0.0456738ZM8.61058 10.1851V13.8846C8.61058 17.7212 8.83894 19.6394 9.29567 19.6394L10.3918 19.9135H11.351C13.0865 19.9135 13.9543 18.0865 13.9543 14.4327V14.1587C13.9543 10.0481 13.0865 7.99279 11.351 7.99279H10.2548C9.15865 8.20593 8.61058 8.9367 8.61058 10.1851ZM26.1262 7.28486H28.7981C30.5793 7.28486 31.47 7.93189 31.47 9.22596V18.2464L35.375 17.5156H35.8546C39.5389 17.5156 41.655 20.3626 42.2031 26.0565L42.4543 28.2488C42.0128 34.4147 40.6274 37.4976 38.2981 37.4976C38.2981 37.8173 37.8946 37.9772 37.0877 37.9772H32.7031L26.857 38.2284C25.228 37.863 24.4135 37.4595 24.4135 37.018V8.9976C24.4135 7.85577 24.9844 7.28486 26.1262 7.28486ZM44.6466 7.28486H47.0673C49.016 7.28486 49.9904 8.25922 49.9904 10.2079L49.762 23.3618V36.0361C49.762 37.4976 48.3766 38.2284 45.6058 38.2284C44.2356 38.2284 43.2612 37.7412 42.6827 36.7668V8.49519C43.109 7.6883 43.7636 7.28486 44.6466 7.28486ZM31.47 23.8642V32.131L32.2007 32.8618H32.9315C33.7841 32.8618 34.2712 32.6182 34.393 32.131V23.8642C34.2408 23.377 33.7536 23.1334 32.9315 23.1334H32.2007L31.47 23.8642ZM54.2837 7.85577H57.1611C58.8053 7.85577 59.6274 8.76923 59.6274 10.5962L61.6827 18.2692H62.3678L62.2308 9.77404C62.2308 8.49519 63.1442 7.85577 64.9712 7.85577H66.4784C68.0312 7.85577 68.8077 8.49519 68.8077 9.77404L68.6707 18.2692H69.0817C69.3558 18.2692 70.1779 15.3005 71.5481 9.36298C71.8221 8.35817 72.4615 7.85577 73.4663 7.85577H76.7548C78.0337 7.85577 78.6731 8.12981 78.6731 8.67789L74.1514 20.3245V20.5986L79.0841 37.0409V37.4519C78.7035 37.8173 78.2468 38 77.7139 38L75.9327 37.863L73.8774 38C72.4159 38 71.6851 37.0865 71.6851 35.2596L69.2187 25.3942H68.9447L68.6707 25.6683V35.8077C68.6707 37.2692 68.0769 38 66.8894 38H64.6971C63.1442 38 62.3678 37.4063 62.3678 36.2188L62.2308 34.7115V25.3942H61.9567C61.6522 25.3942 60.7388 29.0024 59.2163 36.2188L58.6683 37.5889C58.2268 37.863 57.633 38 56.887 38H56.75L55.1058 37.863L53.4615 38H53.3245C52.6546 38 52.1522 37.726 51.8173 37.1779C55.1058 26.7796 56.75 21.2532 56.75 20.5986V20.1875L52.5024 9.36298L52.3654 8.40385C52.3654 8.12981 53.0048 7.94712 54.2837 7.85577ZM84.4736 7.58173C87.2139 7.58173 88.5841 8.26683 88.5841 9.63702V22.7909C88.5841 27.3582 88.9952 29.6418 89.8173 29.6418H90.9135C91.9487 29.6418 92.5425 28.6827 92.6947 26.7644V15.5288L92.5577 10.0481H92.4207C92.4207 8.40385 93.3798 7.58173 95.2981 7.58173H97.3534C99.363 7.58173 100.368 8.08414 100.368 9.08894L100.505 10.0481V27.0385L100.642 35.3966C100.642 36.9495 99.4543 37.726 97.0793 37.726H95.1611C93.4255 37.726 92.5577 37.1779 92.5577 36.0817V35.5337H92.1466C90.6394 37.1779 88.9952 38 87.2139 38C83.012 38 80.9111 34.7572 80.9111 28.2716V11.0072C80.9111 8.72356 81.8702 7.58173 83.7885 7.58173H84.4736ZM108.315 2.26082H115.623L116.353 2.99159V6.89664L115.874 7.3762H108.315L107.835 6.89664V2.74039L108.315 2.26082ZM119.048 7.6274C120.997 7.6274 121.971 8.27444 121.971 9.56851V16.3966L122.2 36.3786C121.225 37.353 120.175 37.8401 119.048 37.8401H116.353C114.724 37.8401 113.91 37.1094 113.91 35.6478C112.387 37.2616 110.606 38.0685 108.566 38.0685C104.501 38.0685 102.469 35.0693 102.469 29.0709V10.2993C102.697 8.67027 103.428 7.85577 104.661 7.85577H107.584C108.863 7.85577 109.754 8.34295 110.256 9.31731V23.9555C110.256 27.6855 110.667 29.5505 111.489 29.5505H112.7C113.567 29.5505 114.054 28.1727 114.161 25.4171V21.2608L113.91 9.31731C113.91 8.19071 115.623 7.6274 119.048 7.6274ZM30.625 58.9928C31.9952 58.9928 32.6803 59.5865 32.6803 60.774L32.5433 62.8293V66.9399L32.4062 69.2692H32.9543C33.2284 69.0256 34.0505 66.0112 35.4207 60.226C35.4207 59.5256 35.9687 59.1146 37.0649 58.9928H41.1755C41.8149 58.9928 42.2716 59.2212 42.5457 59.6779L39.1202 68.3101C38.3894 69.8325 38.024 70.8373 38.024 71.3245V71.8726L42.9567 88.0409C42.9567 88.4063 42.5457 88.726 41.7236 89L41.0385 88.863H39.6683L37.887 89C36.5168 89 35.8317 88.4976 35.8317 87.4928L33.0913 76.3942H32.5433V86.5337C32.5433 88.1779 31.8125 89 30.351 89H29.6659C27.3822 89 26.2404 88.4976 26.2404 87.4928L26.1034 85.9856L26.2404 74.613L26.1034 62.1442V61.1851C26.1034 59.7236 26.7885 58.9928 28.1587 58.9928H30.625ZM54.375 58.1707C58.3486 58.1707 60.9519 59.8606 62.1851 63.2404C63.0072 65.3109 63.4183 68.3253 63.4183 72.2837V73.5168C63.4183 81.0529 62.4591 85.3462 60.5409 86.3966C58.8814 88.1322 56.7348 89 54.101 89C50.1731 89 47.524 87.3558 46.1538 84.0673C45.2404 81.4792 44.7837 78.145 44.7837 74.0649V71.4615C44.7837 65.0521 46.0625 61.1242 48.6202 59.6779C50.1426 58.6731 52.0609 58.1707 54.375 58.1707ZM52.3197 67.899V79.4087C52.5329 80.4135 53.0353 80.9159 53.8269 80.9159H54.101C55.3798 80.9159 56.0192 80.0024 56.0192 78.1755V69.8173C56.0192 67.4423 55.4712 66.2548 54.375 66.2548H53.6899C52.8678 66.2548 52.4111 66.8029 52.3197 67.899ZM78.399 58.7188H79.0841C81.0785 58.7188 82.9054 59.7236 84.5649 61.7332H84.8389C86.5593 59.6322 88.4776 58.5817 90.5937 58.5817C93.1667 58.5817 94.9936 59.9976 96.0745 62.8293C96.6226 64.3822 96.8966 67.762 96.8966 72.9688V81.875C96.8966 86.2596 96.5312 88.4519 95.8005 88.4519C95.8005 88.726 94.9784 88.9087 93.3341 89C90.5937 89 89.2236 88.4063 89.2236 87.2188L89.0865 86.1226V72.1466C89.0865 68.6755 88.5841 66.9399 87.5793 66.9399H86.7572C85.5697 66.9399 84.976 68.4928 84.976 71.5986V85.7115C84.976 87.9038 83.9711 89 81.9615 89H81.4135C78.6731 89 77.3029 88.3149 77.3029 86.9447V72.2837C77.3029 68.7212 76.8005 66.9399 75.7957 66.9399H74.9736C73.7861 67.1835 73.1923 68.1883 73.1923 69.9543V81.1899L73.3293 87.2188C73.3293 88.4063 72.1875 89 69.9038 89H68.2596C66.3413 89 65.3822 88.3149 65.3822 86.9447V67.625L65.2452 61.3221C65.2452 59.6779 66.4327 58.8558 68.8077 58.8558H70.726C72.4615 58.8558 73.3293 59.4038 73.3293 60.5V61.0481H73.7404C75.1715 59.4952 76.7244 58.7188 78.399 58.7188Z" fill="#EC7C26"/>
</svg>
