<svg width="44" height="44" viewBox="0 0 44 44" fill="none" xmlns="http://www.w3.org/2000/svg">
<path fill-rule="evenodd" clip-rule="evenodd" d="M22.0065 25.6731C26.5629 25.6731 30.2565 21.9795 30.2565 17.4231C30.2565 12.8668 26.5629 9.17313 22.0065 9.17313C17.4502 9.17313 13.7565 12.8668 13.7565 17.4231C13.7565 21.9795 17.4502 25.6731 22.0065 25.6731ZM22.0065 22.013C19.4716 22.013 17.4166 19.9581 17.4166 17.4231C17.4166 14.8882 19.4716 12.8332 22.0065 12.8332C24.5415 12.8332 26.5965 14.8882 26.5965 17.4231C26.5965 19.9581 24.5415 22.013 22.0065 22.013Z" fill="#99492E"/>
<path fill-rule="evenodd" clip-rule="evenodd" d="M38.9986 21.2333C41.3689 10.6117 33.0095 0.0065918 22 0.0065918C10.9935 0.0065918 2.63335 10.6263 5.00159 21.2347C6.82955 29.8505 14.2215 38.2187 18.6332 42.5827C20.5226 44.4517 23.4773 44.4517 25.3667 42.5827C29.7787 38.2185 37.1711 29.8497 38.9986 21.2333ZM22 3.67326C30.6395 3.67326 37.2841 12.0814 35.42 20.4347C34.5246 24.4484 32.5157 28.0529 30.1585 31.3849C27.695 34.8672 24.902 37.8849 22.7881 39.9759C22.3273 40.4317 21.6726 40.4317 21.2118 39.9759C19.098 37.885 16.3053 34.8675 13.8418 31.3855C11.4843 28.0532 9.4762 24.4496 8.58017 20.4358C6.71799 12.0943 13.3652 3.67326 22 3.67326Z" fill="#99492E"/>
</svg>
