<svg width="44" height="44" viewBox="0 0 44 44" fill="none" xmlns="http://www.w3.org/2000/svg">
<path fill-rule="evenodd" clip-rule="evenodd" d="M31.8161 40.7592C28.1126 39.8313 20.5308 37.2154 13.6574 30.342C6.78407 23.4687 4.16819 15.8869 3.24029 12.1834C2.70704 10.055 3.66728 8.00126 5.29549 6.83825L9.56395 3.78935C12.0615 2.00541 15.5358 2.61076 17.2828 5.13423L19.9701 9.01587C21.1108 10.6636 20.7173 12.9219 19.0866 14.0867L16.9438 15.6172C17.2681 16.8577 18.2768 19.405 21.4356 22.5639C24.5945 25.7227 27.1418 26.7313 28.3823 27.0556L29.9128 24.9129C31.0776 23.2821 33.3359 22.8887 34.9836 24.0294L38.8652 26.7167C41.3887 28.4637 41.9941 31.938 40.2101 34.4355L37.1612 38.704C35.9982 40.3322 33.9444 41.2924 31.8161 40.7592ZM16.2502 27.7493C22.5007 33.9998 29.3985 36.3735 32.7072 37.2024C33.1908 37.3236 33.7755 37.1357 34.1775 36.5728L37.2264 32.3043C37.8211 31.4718 37.6193 30.3137 36.7781 29.7314L32.8965 27.0441L31.254 29.3435C30.5828 30.2833 29.3414 31.0203 27.8961 30.7085C26.092 30.3192 22.7572 29.0709 18.8429 25.1566C14.9286 21.2422 13.6802 17.9074 13.291 16.1034C12.9791 14.658 13.7162 13.4167 14.6559 12.7455L16.9554 11.103L14.2681 7.22133C13.6858 6.38017 12.5277 6.17839 11.6952 6.77304L7.42669 9.82194C6.8638 10.224 6.67586 10.8087 6.79702 11.2923C7.62601 14.601 9.99964 21.4988 16.2502 27.7493Z" fill="#99492E"/>
</svg>
