<svg width="45" height="45" viewBox="0 0 45 45" fill="none" xmlns="http://www.w3.org/2000/svg">
<path d="M11.0883 14.7613C11.299 13.095 13.4645 10.8304 15.1831 11.0817L15.1803 11.079C16.8528 11.3968 18.1768 14.2754 18.9233 15.5698C19.4523 16.509 19.1088 17.4605 18.6155 17.862C17.9498 18.3985 16.909 19.1388 17.1274 19.8819C17.5156 21.2031 22.125 25.8125 24.3921 27.1228C25.2502 27.6188 25.8724 26.3107 26.4038 25.6405C26.7899 25.1249 27.7421 24.8169 28.6792 25.3257C30.0787 26.1406 31.3969 27.0878 32.616 28.1541C33.2247 28.6629 33.3676 29.415 32.9458 30.2098C32.2027 31.6097 30.0538 33.4559 28.4937 33.0808C25.769 32.4257 14.75 28.1541 11.2106 15.7788C11.0116 15.1934 11.0617 14.9721 11.0883 14.7613Z" fill="#CF6736"/>
<path fill-rule="evenodd" clip-rule="evenodd" d="M22.125 42.4062C19.869 42.4062 18.6208 42.1642 16.5938 41.4844L12.7116 43.4254C10.2598 44.6514 7.375 42.8685 7.375 40.1272V35.9531C3.40458 32.2509 1.84375 27.982 1.84375 22.125C1.84375 10.924 10.924 1.84375 22.125 1.84375C33.326 1.84375 42.4062 10.924 42.4062 22.125C42.4062 33.326 33.326 42.4062 22.125 42.4062ZM11.0625 34.3497L9.88978 33.2562C6.80505 30.3798 5.53125 27.1641 5.53125 22.125C5.53125 12.9605 12.9605 5.53125 22.125 5.53125C31.2895 5.53125 38.7188 12.9605 38.7188 22.125C38.7188 31.2895 31.2895 38.7188 22.125 38.7188C20.3075 38.7188 19.4553 38.5547 17.7663 37.9883L16.3144 37.5013L11.0625 40.1272V34.3497Z" fill="#CF6736"/>
</svg>
